<?xml version="1.0" standalone="no"?>
<!DOCTYPE svg PUBLIC "-//W3C//DTD SVG 20010904//EN"
 "http://www.w3.org/TR/2001/REC-SVG-20010904/DTD/svg10.dtd">
<svg version="1.0" xmlns="http://www.w3.org/2000/svg"
 width="1634.000000pt" height="493.000000pt" viewBox="0 0 1634.000000 493.000000"
 preserveAspectRatio="xMidYMid meet">

<g transform="translate(0.000000,493.000000) scale(0.100000,-0.100000)"
fill="#ffffff" stroke="none">
<path d="M6915 4918 c-3 -7 -6 -388 -8 -846 l-2 -834 -755 808 c-415 444 -769
823 -787 843 l-32 36 -1 -1423 0 -1422 223 2 222 3 5 849 5 848 736 -793 c405
-437 759 -819 787 -849 l51 -55 1 1423 0 1422 -220 0 c-167 0 -222 -3 -225
-12z"/>
<path d="M1265 4914 c-339 -50 -613 -184 -839 -410 -198 -197 -331 -444 -392
-724 -27 -121 -27 -439 0 -560 93 -427 359 -781 737 -980 105 -54 260 -109
389 -137 133 -28 421 -26 560 5 286 64 505 185 711 391 234 235 369 508 409
835 13 98 9 342 -5 379 -7 16 -41 17 -516 17 l-509 0 0 -225 0 -225 280 0
c240 0 280 -2 280 -15 0 -8 -13 -51 -30 -96 -87 -238 -256 -426 -485 -539
-156 -77 -238 -95 -430 -94 -185 1 -264 17 -402 83 -213 102 -361 247 -463
454 -78 158 -94 230 -94 427 0 139 4 178 22 245 77 281 272 512 536 636 137
64 229 83 396 84 264 0 453 -69 651 -238 l76 -65 157 157 157 158 -77 72
c-180 168 -400 282 -663 342 -84 20 -379 34 -456 23z"/>
<path d="M3260 3500 l0 -1420 800 0 800 0 0 225 0 225 -575 0 -575 0 0 165 0
165 445 0 445 0 0 225 0 225 -445 0 -445 0 0 580 0 580 575 0 575 0 0 225 0
225 -800 0 -800 0 0 -1420z"/>
<path d="M9040 4914 c-248 -32 -479 -117 -668 -246 -120 -82 -297 -264 -380
-391 -163 -248 -242 -539 -229 -836 16 -360 150 -671 398 -926 208 -214 436
-339 741 -407 144 -32 405 -32 555 0 269 58 545 204 713 376 l45 46 -157 157
-157 157 -48 -45 c-145 -135 -323 -226 -507 -258 -94 -17 -270 -13 -371 8
-292 60 -553 270 -681 546 -66 143 -79 210 -79 405 0 153 3 185 23 254 99 342
361 598 707 692 57 15 103 19 240 18 155 -1 178 -3 258 -27 148 -46 288 -124
399 -226 l54 -50 158 158 158 158 -71 65 c-185 171 -427 295 -679 348 -95 20
-342 34 -422 24z"/>
<path d="M10620 3500 l0 -1420 800 0 800 0 0 220 0 220 -575 0 -575 0 0 170 0
170 440 0 440 0 0 225 0 225 -440 0 -440 0 0 585 0 585 575 0 575 0 0 220 0
220 -800 0 -800 0 0 -1420z"/>
<path d="M12730 3500 l0 -1420 795 0 795 0 0 220 0 220 -575 0 -575 0 0 1200
0 1200 -220 0 -220 0 0 -1420z"/>
<path d="M14740 3500 l0 -1420 800 0 800 0 0 220 0 220 -577 2 -578 3 -3 1198
-2 1197 -220 0 -220 0 0 -1420z"/>
<path d="M40 1435 l0 -65 8150 0 8150 0 0 65 0 65 -8150 0 -8150 0 0 -65z"/>
<path d="M2447 740 c-117 -20 -221 -111 -257 -227 -40 -131 -18 -294 54 -388
115 -150 375 -166 511 -30 78 79 118 221 97 345 -16 92 -46 155 -102 211 -72
72 -192 107 -303 89z m189 -126 c37 -23 56 -44 79 -89 27 -52 30 -68 30 -149
0 -116 -20 -171 -81 -225 -110 -96 -277 -70 -351 56 -26 45 -28 55 -28 163 0
99 3 121 22 155 48 89 114 127 214 122 53 -2 76 -9 115 -33z"/>
<path d="M6458 738 c-115 -15 -216 -94 -256 -199 -59 -159 -21 -365 87 -462
64 -58 102 -70 216 -71 90 -1 105 2 150 26 76 40 131 110 150 189 6 24 3 27
-41 38 -53 13 -57 11 -73 -41 -25 -77 -129 -137 -214 -124 -128 21 -191 109
-191 271 0 109 15 164 57 212 41 47 99 73 165 73 88 0 144 -35 176 -112 l15
-36 43 10 c24 6 47 14 51 18 13 12 -18 74 -59 120 -67 74 -158 103 -276 88z"/>
<path d="M10710 740 c-111 -19 -194 -79 -239 -173 -99 -204 -33 -446 147 -534
50 -25 68 -28 152 -28 84 0 102 3 152 28 122 60 190 180 190 337 0 95 -20 168
-63 233 -68 103 -208 159 -339 137z m155 -109 c92 -42 137 -129 137 -261 0
-176 -83 -274 -232 -274 -166 0 -261 138 -230 337 7 46 21 88 38 117 54 88
189 126 287 81z"/>
<path d="M13292 739 c-139 -23 -233 -116 -268 -264 -69 -294 156 -535 429
-461 166 46 256 188 245 386 -11 186 -112 308 -283 339 -32 6 -61 10 -64 10
-3 -1 -30 -5 -59 -10z m165 -110 c94 -45 138 -142 131 -285 -6 -106 -34 -166
-101 -211 -133 -90 -307 -25 -352 132 -19 64 -16 184 5 241 46 119 200 180
317 123z"/>
<path d="M14667 738 c-192 -26 -311 -188 -294 -402 8 -107 32 -161 102 -231
79 -79 135 -100 265 -100 105 1 168 20 254 76 l47 31 -3 137 -3 136 -152 3
-153 3 0 -51 0 -50 100 0 100 0 0 -65 0 -66 -62 -29 c-51 -24 -76 -30 -133
-30 -174 0 -267 113 -252 305 5 75 36 153 74 187 57 52 182 73 261 45 44 -16
88 -60 102 -102 6 -19 14 -35 16 -35 3 0 25 5 50 11 51 13 51 18 5 103 -51 97
-175 145 -324 124z"/>
<path d="M30 369 l0 -361 193 4 c170 3 197 6 238 24 86 40 136 147 110 234
-13 45 -62 106 -93 116 -19 6 -19 7 10 37 42 45 52 69 52 122 0 55 -29 116
-67 143 -52 36 -92 42 -269 42 l-174 0 0 -361z m320 262 c88 -17 120 -103 61
-162 -29 -29 -30 -29 -150 -29 l-121 0 0 100 0 100 83 0 c45 -1 102 -5 127 -9z
m29 -301 c99 -28 121 -150 37 -201 -26 -16 -51 -19 -153 -19 l-123 0 0 115 0
115 103 0 c56 0 117 -4 136 -10z"/>
<path d="M1322 373 l3 -358 53 -3 52 -3 0 360 0 361 -55 0 -55 0 2 -357z"/>
<path d="M3540 685 l0 -45 115 0 115 0 0 -316 0 -315 53 3 52 3 3 313 2 312
115 0 115 0 0 45 0 45 -285 0 -285 0 0 -45z"/>
<path d="M4870 370 l0 -360 270 0 270 0 0 50 0 50 -215 0 -215 0 0 115 0 115
195 0 195 0 0 45 0 45 -195 0 -195 0 0 105 0 105 205 0 205 0 0 45 0 45 -260
0 -260 0 0 -360z"/>
<path d="M7640 369 l0 -360 53 3 52 3 3 168 2 167 175 0 175 0 0 -170 0 -170
55 0 55 0 0 360 0 360 -55 0 -55 0 0 -145 0 -145 -175 0 -175 0 0 145 0 145
-55 0 -55 0 0 -361z"/>
<path d="M9062 373 l3 -358 50 0 50 0 5 264 5 264 178 -267 178 -267 52 3 52
3 3 358 2 357 -55 0 -55 0 0 -267 0 -267 -177 264 -178 265 -58 3 -57 3 2
-358z"/>
<path d="M11900 370 l0 -360 230 0 230 0 0 50 0 50 -175 0 -175 0 0 310 0 310
-55 0 -55 0 0 -360z"/>
<path d="M15810 520 l140 -210 0 -150 0 -150 50 0 50 0 0 151 0 150 102 147
c56 81 121 175 146 210 l44 62 -64 0 -63 0 -104 -160 -105 -159 -46 72 c-26
40 -72 111 -103 160 l-57 87 -65 0 -65 0 140 -210z"/>
</g>
</svg>
